<svg xmlns="http://www.w3.org/2000/svg" width="33.122" height="304.767" viewBox="0 0 33.122 304.767">
  <defs>
    <style>
      .cls-1 {
        fill: #1a1311;
      }
    </style>
  </defs>
  <g id="グループ_11" data-name="グループ 11" transform="translate(-282.452 -135.245)">
    <g id="グループ_4" data-name="グループ 4" transform="translate(282.452 135.245)">
      <path id="パス_1" data-name="パス 1" class="cls-1" d="M296.185,148l.169,12.923h-5.82l.169-12.991V135.482l.271-.237h4.938l.272.271Z" transform="translate(-276.865 -135.245)"/>
      <path id="パス_2" data-name="パス 2" class="cls-1" d="M294.15,178.6l1.285-1.252.338-.068a25.07,25.07,0,0,1,3.484,2.877l.034.338-2.368,2.571h-.338a29.608,29.608,0,0,0-2.4-2.6l.2,7.037h-4.839l.338-6.6a22.423,22.423,0,0,1-3.925,4.4,1.112,1.112,0,0,1-.541.271c-.169,0-.3-.1-.507-.338l-2.3-2.807a28.5,28.5,0,0,0,6.023-5.921h-.71l-3.79.1-.237-.2v-3.45l.2-.2,3.824.1h1.827v-1.9l.169-.169h4.025l.2.169v1.9H295.6l3.958-.1.2.169v3.518l-.2.169-3.958-.1H294.15Zm5.581-12.246.237.237v3.416l-.237.237-3.924-.1h-8.424l-3.79.1-.237-.237V166.59l.237-.237,3.416.1a27.075,27.075,0,0,0-.71-2.706l.2-.306,3.383-.709.3.271a25.947,25.947,0,0,1,.947,3.45H292.8c.338-1.184.611-2.368.846-3.552l.3-.169,3.587.812.237.271c-.271.846-.541,1.759-.846,2.6ZM295,158.809l4.262-.1.237.2v3.315l-.237.237-4.262-.1h-6.428l-4.128.1-.237-.237v-3.281l.237-.237,4.128.1h1.082V155.56l.237-.235h4.093l.2.269v3.215Zm10.116,12.246c0,8.595-1.184,12.35-4.433,16.138-.2.2-.338.34-.507.34a.9.9,0,0,1-.474-.2l-3.112-2.166c3.281-3.687,4.093-6.6,4.093-13.126v-8.424l-.1-5.617.238-.237,3.281.575a29.791,29.791,0,0,0,7.24-2.131h.3a21.217,21.217,0,0,1,3.08,3.01v.338a48.39,48.39,0,0,1-9.608,2.469v4.3h6.09l3.484-.1.2.237v3.552l-.2.237-2.638-.068v9.236l.169,8.121h-4.839l.169-8.121v-9.27h-2.435Z" transform="translate(-282.341 -121.364)"/>
      <path id="パス_3" data-name="パス 3" class="cls-1" d="M284.78,206.456c1.725-6.429,3.247-11.908,4.769-17.457-1.725.2-3.418.372-5.109.474l-.271-.237-.337-4.093.235-.272c2.5-.2,4.7-.438,6.767-.709.507-1.9,1.049-3.892,1.592-5.887l.3-.171,4.636.712.237.3c-.44,1.387-.879,2.909-1.252,4.264,1.353-.238,2.706-.509,3.958-.78l.271.135.306,4.23-.239.271c-1.827.338-3.755.677-5.649.981-1.793,6.259-3.452,12.451-5.177,19.385l-.3.135-4.6-1.015Zm11.3-3.078,2.469-3.112.338-.034c1.691,1.827,3.283,2.3,7.139,2.3a32.853,32.853,0,0,0,6.158-.541l.271.135v4.736l-.2.272a44.239,44.239,0,0,1-6.395.37c-5.921,0-7.815-1.387-9.777-3.755Zm3.18-10.251.3-4.162.237-.3c1.691-.135,3.35-.2,4.94-.2a47.115,47.115,0,0,1,6.428.406l.237.271-.338,4.194-.3.2c-2.3-.2-4.534-.338-6.936-.338-1.388,0-2.807.066-4.331.167Z" transform="translate(-281.497 -105.618)"/>
      <path id="パス_4" data-name="パス 4" class="cls-1" d="M298.638,200.787c-.3,1.353-.677,2.672-.981,3.892q1.776-.358,3.553-.813l.3.135.644,2.977a28.2,28.2,0,0,1,10.454,2.64l.1.338-1.387,3.755-.271.135a5.588,5.588,0,0,0-2.742-.573c-2.165,0-4.025.846-4.025,2.366a16.023,16.023,0,0,0,1.488,5.042,32.411,32.411,0,0,1,7.376,4.331v.338L310.312,229l-.306.034a32.264,32.264,0,0,0-3.958-3.213c-.1,2.74-3.078,4.534-6.9,4.534-4.4,0-7.1-1.761-7.1-5.278,0-3.18,2.708-5.414,6.327-5.414a11.525,11.525,0,0,1,2.2.169,11.906,11.906,0,0,1-.744-4.127c.068-1.828,1.793-3.384,4.6-4.23a42.973,42.973,0,0,0-4.6-.474l-.169-.237.846-1.928c-1.454.3-2.943.609-4.431.812a59.508,59.508,0,0,1-7.985,14.887l-.338.068-3.993-2.572v-.3a44.548,44.548,0,0,0,6.834-11.436c-1.759.169-3.552.271-5.414.3l-.269-.2-.1-4.162.237-.237c2.571-.068,4.972-.237,7.272-.472a49.711,49.711,0,0,0,1.287-5.617l.3-.2,4.534.778Zm-.406,22.8c-1.15,0-1.826.71-1.826,1.285,0,.812.744,1.353,1.962,1.353,1.928,0,3.044-.677,3.01-2.03A5.947,5.947,0,0,0,298.233,223.591Z" transform="translate(-281.553 -90.686)"/>
      <path id="パス_5" data-name="パス 5" class="cls-1" d="M290.569,243.1a32.516,32.516,0,0,0,4.737-5.143,46.922,46.922,0,0,0,3.721-5.919h-1.59l-5.448.1-.237-.237v-3.89l.237-.238,5.448.1h2.909v-6.395l.237-.237h4.128l.237.237v6.395H308.7l5.481-.1.2.238v3.89l-.2.237-5.481-.1H306.47a31.2,31.2,0,0,0,8.8,10.826l-2.978,3.993a.576.576,0,0,1-.44.271.865.865,0,0,1-.609-.372q-1.066-1.268-2.031-2.537v3.18l-.169.169-3.721-.1h-.372l.135,6.192h-4.906l.135-6.192h-.3l-3.856.1-.237-.2v-2.911a28.984,28.984,0,0,1-2.3,2.64.742.742,0,0,1-.507.271.576.576,0,0,1-.44-.271l-2.1-2.64v9.2h-4.737L286,243.2v-3.756a18.707,18.707,0,0,1-1.284,2.469.568.568,0,0,1-.441.338c-.169,0-.3-.135-.372-.372l-1.251-4.668a48.208,48.208,0,0,0,5.752-15.8l.3-.169,4.228.913.169.3a72.1,72.1,0,0,1-2.537,8.187Zm9.439.575h.372l.169-6.868a35.4,35.4,0,0,1-3.958,6.767Zm8.729-.1a31.783,31.783,0,0,1-3.991-7.477l.135,7.579h.44Z" transform="translate(-282.314 -75.796)"/>
      <path id="パス_6" data-name="パス 6" class="cls-1" d="M296.189,243.476l.237-.271h4.533l.237.237v2.706h7.952l5.277-.1.237.237v3.587l-.237.235-5.277-.1h-1.355a39.462,39.462,0,0,1,5.921,4.16v.338l-3.01,2.808-.338.034-2.029-2.03c-7.714.677-14.584,1.049-22.9,1.387l-.306-.2-1.015-3.619.237-.3c2.1,0,4.061.034,5.887,0a19.049,19.049,0,0,0,1.421-2.571h-3.281l-5.245.1-.237-.271v-3.585l.271-.2,5.211.1h7.815Zm-3.418,26.558v5.617h-4.8l.169-8.39V261.3l-.1-3.824.2-.169,4.634.1h12.35l4.668-.1.171.169-.068,3.892v4.465l.135,5.887c0,3.08-1.964,3.892-6.361,3.892-.474,0-.575-.034-.678-.306l-1.453-3.856c.812,0,2.131-.034,3.01-.1.338-.034.507-.068.507-.541v-.778Zm12.383-9.2H292.771v1.387h12.383Zm0,4.533H292.771v1.49h12.383Zm-8.289-15.358c-.507.846-1.015,1.725-1.59,2.537,3.112-.1,6.192-.2,9.27-.372-.575-.406-1.15-.78-1.725-1.116l.034-.338,1.049-.71Z" transform="translate(-282.148 -60.616)"/>
      <path id="パス_7" data-name="パス 7" class="cls-1" d="M287.663,275.308a28.985,28.985,0,0,1,2.6,2.063c.338-.237.643-.507.947-.744l.1-.1a21.908,21.908,0,0,0-2.5-1.962v-.338l1.827-1.828.338-.034a23.109,23.109,0,0,1,2.6,1.727,9.563,9.563,0,0,0,1.252-2.4h-4.4a21.4,21.4,0,0,1-4.906,4.23.63.63,0,0,1-.372.135c-.135,0-.269-.068-.474-.3l-2.232-2.706a18.966,18.966,0,0,0,7.443-7.782l.338-.034,3.349,1.421.034.338-.71,1.218h2.369l2.063-.169,1.725,1.488c-.271-.981-.507-2.03-.744-3.112l.135-.3,3.756-.981.337.068c.949,3.958,1.828,6.834,3.486,9a20.744,20.744,0,0,0,2.4-2.877h-.812l-2.807.068-.237-.237V267.7l.237-.237,2.807.1h2.1l2.063-.169,2.131,1.962a.939.939,0,0,1,.338.676,1.179,1.179,0,0,1-.2.575,37.158,37.158,0,0,1-5.008,6.428,21.808,21.808,0,0,0,6.53,3.01l-2.638,3.722a.825.825,0,0,1-.272.3h.306l.237.237v3.721l-.237.238-5.448-.1h-5.786v1.521l.137,3.249c0,3.993-1.558,4.7-5.853,4.7-.677,0-.71-.068-.879-.408l-1.9-3.991a25.786,25.786,0,0,0,2.775-.068c.71-.068.846-.271.846-1.082v-3.924h-6.023l-5.448.1-.237-.238v-3.687l-2.571-3.35a23.187,23.187,0,0,0,4.839-1.86,15.547,15.547,0,0,0-2.031-1.657l.034-.338,1.9-1.793Zm7.409,15.867-.034.338a30.1,30.1,0,0,1-8.593,4.871,1.431,1.431,0,0,1-.475.068c-.167,0-.269-.068-.406-.271l-2.3-3.619a21.708,21.708,0,0,0,8.289-4.161l.338.032Zm-2.3-10.454a23.151,23.151,0,0,1-6.055,3.383l4.127.068h16.679l4.67-.1a20.528,20.528,0,0,1-6.225-3.45v1.556l-.237.237-4.095-.1H297.1l-4.095.1-.237-.237Zm4.331-2.3h4.533l2-.034c-.238-.271-.474-.575-.71-.846a19.791,19.791,0,0,1-3.283-6.158,22.585,22.585,0,0,1-4.3,7Zm14.648,17.965-.337.068a39.336,39.336,0,0,0-7.986-4.533l-.167-.271,2.3-3.181.338-.066a42.733,42.733,0,0,1,8.39,4.059l.034.338Z" transform="translate(-282.452 -45.464)"/>
      <path id="パス_8" data-name="パス 8" class="cls-1" d="M283.532,305.77a39.914,39.914,0,0,0,8.424-8.627c-1.624.135-3.315.169-4.9.169l-.2-.2-.135-4.162.237-.2c2.537,0,5.04-.068,7.545-.237a35.4,35.4,0,0,0,1.59-4.533l.271-.169,4.634.676.2.237c-.408,1.184-.814,2.2-1.186,3.18,1.691-.271,3.384-.575,5.076-.981l.3.169.338,3.991-.2.306c-2.469.506-5.243.947-8.052,1.285-.541.812-1.285,1.86-1.962,2.672a9.89,9.89,0,0,1,3.18-.44,4.149,4.149,0,0,1,4.128,3.249c2.131-.813,4.533-1.659,7.173-2.539l.338.135,2.1,4.162-.169.3c-3.416.879-6.327,1.759-8.83,2.672.068,1.319.1,2.978.135,4.6l-.237.2-4.467.169-.271-.2v-2.775c-2.063.983-3.213,1.93-3.213,3.08s1.353,1.454,4.363,1.488a60.57,60.57,0,0,0,8.83-.71l.34.2.3,4.5-.2.269c-3.215.271-6.056.441-10.016.441-6.834,0-8.627-2.877-8.627-5.786,0-3.249,2.74-5.515,5.887-7.308q.913-.507,2.03-1.015a1.49,1.49,0,0,0-1.691-1.287,6.479,6.479,0,0,0-3.856,1.186,49.78,49.78,0,0,0-5.887,5.48l-.34.034-2.977-3.315Z" transform="translate(-281.705 -29.786)"/>
      <path id="パス_9" data-name="パス 9" class="cls-1" d="M299.094,309.484a29.063,29.063,0,0,1,7.037,6.665v.271l-3.484,3.148h-.3a30.344,30.344,0,0,0-6.868-7.037v-.3l3.281-2.708Z" transform="translate(-273.45 -14.8)"/>
    </g>
  </g>
</svg>
