<svg id="グループ_25" data-name="グループ 25" xmlns="http://www.w3.org/2000/svg" width="33.122" height="179.074" viewBox="0 0 33.122 179.074">
  <defs>
    <style>
      .cls-1 {
        fill: #231815;
      }

      .cls-2 {
        fill: #ff3800;
      }
    </style>
  </defs>
  <path id="パス_34" data-name="パス 34" class="cls-1" d="M292.757,352.357l3.632-.1.24.24-.1,3.63v4.351l.1,3.835-.274.31-3.632-.1H287.38v19.489h-4.385l.171-11.645V357.05l-.1-4.556.205-.24,3.664.1Zm-.409,4.693v-1.406H287.38v1.406Zm-4.967,4.178h4.967V359.79H287.38Zm4.109,14.181-2.979.068-.274-.206v-3.186l.24-.205,3.014.1h1.027c.034-.89,0-1.746,0-2.637h-.306l-2.81.069-.274-.206v-3.118l.24-.205,2.844.1h11.542l2.842-.1.24.24v3.084l-.24.206-2.842-.069h-.377v2.637h1.267l2.842-.1.241.24v3.152l-.241.206-2.842-.068h-1.267l.171,6.986h-4.556l.171-6.986h-2.808a10.042,10.042,0,0,1-.788,2.705,9.433,9.433,0,0,1-4.728,4.625.893.893,0,0,1-.377.1.65.65,0,0,1-.514-.274l-2.466-2.81c2.123-.856,3.493-1.712,4.212-3.048a4.939,4.939,0,0,0,.481-1.3Zm5.241-6.063c0,.89,0,1.747-.034,2.637h2.466v-2.637Zm6.063-4.829-3.632.1-.274-.31.1-3.835v-4.351l-.1-3.63.24-.24,3.632.1h6.335l3.664-.1.207.24-.1,4.556V370l.171,9.8c0,3.049-2.193,3.974-5.789,3.974-.685,0-.822-.171-.959-.514l-1.473-4.008a28.848,28.848,0,0,0,3.151-.137c.411-.069.479-.206.479-1.027V364.517Zm5.65-7.467v-1.406h-5.205v1.406Zm-5.205,4.178h5.205V359.79h-5.205Z" transform="translate(-281.249 -352.254)"/>
  <path id="パス_35" data-name="パス 35" class="cls-2" d="M282.763,384.491l-.24-.205v-3.733l.205-.205,3.769.1v-6.542l.272-.274h4.043l.308.24v6.543l3.151-.068.206.171v3.8l-.206.171-3.151-.068V388.4c1.267-.375,2.466-.753,3.459-1.1l.07,3.426c0,.616-.139.856-.719,1.062-.755.274-1.714.616-2.81.993v1.062l.171,7.467c0,4.043-1.37,5.173-6.166,5.173-.411,0-.514-.068-.651-.411l-1.918-4.282a24.7,24.7,0,0,0,3.014-.137c.721-.069.926-.274.926-1.1v-6.3c-.995.308-1.954.584-2.844.822l-.308-.171-1.37-4.007.171-.308c1.4-.274,2.877-.616,4.351-.993v-5.207Zm19.7,19.352V406h-4.83l.171-8.7v-1.234a29.082,29.082,0,0,1-2.568,2.467.919.919,0,0,1-.548.274c-.173,0-.344-.137-.582-.342l-2.776-2.671c5.07-4.111,7.707-9.318,8.974-15.756h-1.2l-4.9.1-.24-.207V376l.206-.205,4.931.1h10.857l4.933-.1.205.171v4.007l-.205.173-4.933-.1h-4.486a35.66,35.66,0,0,1-2.808,8.734h6.061l4.9-.1.24.24-.1,4.281v4.282l.171,8.289H308.9v-1.919Zm6.438-10.994h-6.438v6.919H308.9Z" transform="translate(-281.975 -337.026)"/>
  <path id="パス_36" data-name="パス 36" class="cls-1" d="M288.8,424.066c4.966-1.027,8.084-3.185,8.974-5.31-.445.447-1.4.789-3.287.789-3.152,0-4.865-1.645-4.865-4.077,0-4.075,3.151-7.741,6.166-7.741a6.207,6.207,0,0,1,1.712.171c0-.753,0-1.4-.034-2.226-4.383.24-9.008.651-13.837,1.2l-.276-.205-.342-4.317.24-.306c4.762-.342,9.625-.687,14.215-.926v-4.623l.205-.24H302.4l.276.274c-.034,1.575-.068,2.979-.1,4.282,3.424-.139,6.851-.276,10.1-.31l.276.241v4.281l-.276.24c-3.39,0-6.815.034-10.137.171,0,1.883,0,3.87.1,6.2a13.791,13.791,0,0,1,.753,4.178,10.882,10.882,0,0,1-1.438,5.618,13.457,13.457,0,0,1-7.878,5.96c-.137.034-.241.069-.344.1a1.239,1.239,0,0,1-.478.069,1.041,1.041,0,0,1-.55-.171Zm7.364-12.3c-.959,0-2.089,1.473-2.089,2.534,0,.651.205.959,1.1.959,1.4,0,2.4-.582,2.466-2.157C297.4,412.147,296.853,411.77,296.168,411.77Z" transform="translate(-281.234 -320.915)"/>
  <path id="パス_37" data-name="パス 37" class="cls-1" d="M288.371,425.993l-.89-4.385.205-.308c5.207-1.164,10.481-1.986,14.215-2.466a3.087,3.087,0,0,1,3.151,2.979,2.38,2.38,0,0,1-.616,1.782c-2.774,2.74-4.693,4.486-7.536,7.3a8.47,8.47,0,0,1,4.282-.892c5.171,0,8.631,3.529,8.631,8.839,0,6.233-4.693,9.761-12.606,9.761-4.043,0-7.467-1.68-7.467-5.584,0-2.226,2.466-4.76,5.241-4.76,4.075,0,6.027,2.671,6.953,5.07,2.02-.961,2.637-2.57,2.637-4.969a4.326,4.326,0,0,0-4.659-4.315c-4.9,0-8.426,3.221-12.056,7.912l-.342.034-3.664-2.945-.036-.377c4.727-5.412,9.044-10.14,13.6-14.662-2.6.55-5.616,1.269-8.768,2.159Zm6.953,16.271c-.685,0-1.3.272-1.3.889,0,.719.788,1.372,2.534,1.372a4.54,4.54,0,0,0,1.1-.1A2.606,2.606,0,0,0,295.325,442.264Z" transform="translate(-280.664 -304.832)"/>
  <path id="パス_38" data-name="パス 38" class="cls-1" d="M295.736,454.568l.173,13.085h-5.892l.171-13.154V441.894l.274-.24h5l.274.274Z" transform="translate(-276.247 -288.579)"/>
</svg>
